<svg width="243" height="234" viewBox="0 0 243 234" fill="none" xmlns="http://www.w3.org/2000/svg">
<g clip-path="url(#clip0_294_13714)">
<path d="M109.744 137.038C112.251 134.474 113.813 132.269 115.91 130.88C119.77 128.314 124.022 126.349 127.967 123.924C134.876 119.688 141.596 115.14 148.565 111.005C152.507 108.664 156.608 106.337 160.953 104.999C166.048 103.432 170.854 105.784 173.015 109.729C175.4 114.087 174.218 119.441 169.467 123.017C166.427 125.311 163.014 127.487 159.409 128.601C147.946 132.14 136.336 135.234 124.736 138.322C121.767 139.111 118.62 139.582 115.555 139.581C113.951 139.596 112.333 138.239 109.744 137.038Z" fill="#EDBC5A"/>
<path d="M63.1042 106.553C62.1571 106.435 60.8352 106.623 60.0571 106.063C59.2609 105.472 58.5073 104.118 58.5935 103.178C58.8059 100.891 59.3669 98.6144 60.049 96.4024C64.0524 83.4572 68.0821 70.5103 72.2528 57.6155C73.0724 55.0891 74.252 52.5251 75.8711 50.4369C78.9431 46.4829 84.4384 45.2373 88.4747 47.0643C92.4564 48.8691 94.7661 53.9147 93.8497 58.9186C93.6478 60.051 93.3695 61.2152 92.8751 62.2486C85.6277 77.3093 77.2028 91.6242 66.0106 104.174C65.2596 105.033 64.2355 105.645 63.1042 106.553Z" fill="#EDBC5A"/>
<path d="M166.031 182.062C164.185 182.29 161.067 183.237 158.077 182.931C147.224 181.84 136.407 180.359 125.595 178.93C124.078 178.729 122.583 178.091 121.176 177.441C119.388 176.636 117.413 175.478 118.103 173.234C118.464 172.048 120.09 171.076 121.346 170.395C122.304 169.877 123.603 169.921 124.762 169.803C135.993 168.699 147.222 167.502 158.47 166.607C161.499 166.368 164.687 166.707 167.638 167.446C170.354 168.134 172.435 170.076 172.595 173.247C172.736 176.184 171.629 178.528 169.157 180.181C168.499 180.63 167.818 180.995 166.031 182.062Z" fill="#EDBC5A"/>
</g>
<defs>
<clipPath id="clip0_294_13714">
<rect width="188" height="165" fill="white" transform="translate(76.2679) rotate(27.5311)"/>
</clipPath>
</defs>
</svg>
